<svg width="512" height="512" viewBox="0 0 40 40" fill="none" xmlns="http://www.w3.org/2000/svg">
    <!-- Master Logo File - Maximum Resolution -->
    <!-- Use this file as the source for all other sizes -->
    <!-- Export dimensions: 512×512px for maximum quality -->
    
    <!-- Hexagon Outline -->
    <path d="M20 5L35 12V28L20 35L5 28V12L20 5Z" 
          stroke="url(#logoGradientMaster)" 
          stroke-width="2" 
          fill="none"
          stroke-linejoin="round"/>
    
    <!-- Central Compass Rose Cross -->
    <!-- Cardinal Points (N, S, E, W) - Long narrow triangles from center -->
    <path d="M20 9L22 20L18 20Z" fill="url(#logoGradientMaster)"/>
    <path d="M20 31L22 20L18 20Z" fill="url(#logoGradientMaster)"/>
    <path d="M31 20L20 18L20 22Z" fill="url(#logoGradientMaster)"/>
    <path d="M9 20L20 18L20 22Z" fill="url(#logoGradientMaster)"/>
    <!-- Intercardinal Points (NE, SE, SW, NW) - Shorter narrow triangles from center -->
    <path d="M27 13L21.5 21.5L18.5 18.5Z" fill="url(#logoGradientMaster)"/>
    <path d="M27 27L21.5 18.5L18.5 21.5Z" fill="url(#logoGradientMaster)"/>
    <path d="M13 27L18.5 18.5L21.5 21.5Z" fill="url(#logoGradientMaster)"/>
    <path d="M13 13L18.5 21.5L21.5 18.5Z" fill="url(#logoGradientMaster)"/>
    <!-- Center circle -->
    <circle cx="20" cy="20" r="1.5" fill="url(#logoGradientMaster)"/>
    
    <!-- Gradient Definition -->
    <defs>
        <linearGradient id="logoGradientMaster" x1="0%" y1="0%" x2="100%" y2="100%">
            <stop offset="0%" style="stop-color:#6366f1;stop-opacity:1" />
            <stop offset="100%" style="stop-color:#8b5cf6;stop-opacity:1" />
        </linearGradient>
    </defs>
</svg>
